<svg width="189" height="189" viewBox="0 0 189 189" fill="none" xmlns="http://www.w3.org/2000/svg">
<g id="mdi:dog">
<path id="Vector" d="M141.75 31.5C128.284 31.5 120.094 34.0988 115.369 36.3038C109.305 33.3113 102.375 31.5 94.5 31.5C86.625 31.5 79.695 33.3113 73.6313 36.3038C68.9063 34.0988 60.7163 31.5 47.25 31.5C23.625 31.5 7.875 94.5 7.875 110.25C7.875 116.786 18.27 122.771 32.6025 125.212C37.6425 142.852 61.425 156.319 90.5625 157.5V123.795C85.9163 120.881 78.75 115.605 78.75 110.25C78.75 102.375 94.5 102.375 94.5 102.375C94.5 102.375 110.25 102.375 110.25 110.25C110.25 115.605 103.084 120.881 98.4375 123.795V157.5C127.575 156.319 151.357 142.852 156.398 125.212C170.73 122.771 181.125 116.786 181.125 110.25C181.125 94.5 165.375 31.5 141.75 31.5ZM32.6813 109.226C28.7438 108.281 25.6725 107.179 23.625 106.312C25.5938 84.4987 40.95 50.4 47.6438 47.25C51.8963 47.25 55.125 47.7225 58.0387 48.1163C41.5013 66.3075 34.965 94.815 32.6813 109.226ZM70.875 94.5C68.7864 94.5 66.7834 93.6703 65.3065 92.1935C63.8297 90.7166 63 88.7136 63 86.625C63 82.3725 66.5438 78.75 70.875 78.75C72.9636 78.75 74.9666 79.5797 76.4435 81.0565C77.9203 82.5334 78.75 84.5364 78.75 86.625C78.75 91.035 75.2063 94.5 70.875 94.5ZM118.125 94.5C116.036 94.5 114.033 93.6703 112.557 92.1935C111.08 90.7166 110.25 88.7136 110.25 86.625C110.25 82.3725 113.794 78.75 118.125 78.75C120.214 78.75 122.217 79.5797 123.693 81.0565C125.17 82.5334 126 84.5364 126 86.625C126 91.035 122.456 94.5 118.125 94.5ZM156.319 109.226C154.035 94.815 147.499 66.3075 130.961 48.1163C133.875 47.7225 137.104 47.25 141.356 47.25C148.05 50.4 163.406 84.4987 165.375 106.312C163.406 107.179 160.335 108.281 156.319 109.226Z" fill="white"/>
</g>
</svg>
