<svg width="191" height="181" viewBox="0 0 191 181" fill="none" xmlns="http://www.w3.org/2000/svg">
<path d="M23.8103 85.7167C36.9603 85.7167 47.6205 75.0565 47.6205 61.9065C47.6205 48.7564 36.9603 38.0962 23.8103 38.0962C10.6602 38.0962 0 48.7564 0 61.9065C0 75.0565 10.6602 85.7167 23.8103 85.7167Z" fill="#57897D"/>
<path d="M66.6648 47.6205C79.8148 47.6205 90.475 36.9603 90.475 23.8103C90.475 10.6602 79.8148 0 66.6648 0C53.5147 0 42.8545 10.6602 42.8545 23.8103C42.8545 36.9603 53.5147 47.6205 66.6648 47.6205Z" fill="#57897D"/>
<path d="M123.813 47.6205C136.963 47.6205 147.623 36.9603 147.623 23.8103C147.623 10.6602 136.963 0 123.813 0C110.663 0 100.003 10.6602 100.003 23.8103C100.003 36.9603 110.663 47.6205 123.813 47.6205Z" fill="#57897D"/>
<path d="M166.673 85.7167C179.823 85.7167 190.483 75.0565 190.483 61.9065C190.483 48.7564 179.823 38.0962 166.673 38.0962C153.523 38.0962 142.862 48.7564 142.862 61.9065C142.862 75.0565 153.523 85.7167 166.673 85.7167Z" fill="#57897D"/>
<path d="M146.1 112.956C137.814 103.241 130.861 94.9553 122.48 85.2407C118.099 80.0977 112.48 74.9546 105.813 72.6689C104.765 72.2879 103.717 72.0022 102.67 71.8117C100.289 71.4307 97.7173 71.4307 95.241 71.4307C92.7647 71.4307 90.1932 71.4307 87.717 71.9069C86.6693 72.0974 85.6217 72.3831 84.574 72.7641C77.9071 75.0499 72.3832 80.1929 67.9068 85.3359C59.6208 95.0505 52.6683 103.336 44.287 113.051C31.8105 125.528 16.4766 139.338 19.3339 158.672C22.0959 168.386 29.0485 178.006 41.525 180.767C48.4776 182.196 70.6688 176.577 94.2886 176.577H96.0029C119.623 176.577 141.814 182.101 148.767 180.767C161.243 178.006 168.196 168.291 170.958 158.672C173.91 139.242 158.576 125.432 146.1 112.956Z" fill="#57897D"/>
</svg>
