<svg width="98" height="89" viewBox="0 0 98 89" fill="none" xmlns="http://www.w3.org/2000/svg">
<path id="Vector" d="M31.8797 0.457485C37.5743 -0.298845 43.5174 6.05393 45.1435 14.7377C46.7702 23.3728 43.543 31.0226 37.8478 31.8276C32.2007 32.6332 26.2094 26.2798 24.5352 17.5954C22.8603 8.95972 26.1838 1.31114 31.8797 0.457485ZM66.3226 0.887408C72.0435 1.88357 75.1269 9.61212 73.3334 18.2045C71.3947 26.8438 65.2949 33.0463 59.6215 32.0994C53.9 31.1519 50.8648 23.4239 52.7547 14.8327C54.597 6.19223 60.6968 -0.010225 66.3226 0.887408ZM5.82823 22.5211C11.3496 20.2051 18.7622 24.6294 22.57 32.221C26.1351 39.9555 24.7818 48.018 19.3086 50.3346C13.8354 52.6512 6.47035 48.2762 2.76013 40.5885C-0.950095 32.9008 0.500161 24.7908 5.82823 22.5211ZM92.5378 23.6034C97.8076 26.0054 99.0549 34.1491 95.154 41.7418C91.253 49.3345 83.7811 53.5243 78.3674 51.0718C72.9537 48.6193 71.8021 40.5255 75.5592 32.8824C79.5552 25.3882 87.076 21.1503 92.5378 23.6034ZM83.8383 75.9624C83.9739 80.5392 80.4423 85.5569 76.2758 87.4031C67.6032 91.2859 57.494 82.8856 47.9078 82.766C38.3216 82.6463 27.9053 91.1311 19.4811 86.6942C14.6936 84.2495 11.4487 77.8818 12.1406 72.6339C13.0982 65.3939 21.7695 61.6084 26.942 56.3678C33.8199 49.591 38.798 36.7553 48.4806 36.8761C58.115 36.9964 63.0627 49.7613 69.4778 56.8987C74.7508 62.9024 83.6001 68.026 83.8383 75.9624Z" fill="#BFD8BD"/>
</svg>
