<svg width="78" height="79" viewBox="0 0 78 79" fill="none" xmlns="http://www.w3.org/2000/svg">
<path id="Vector" d="M11.5943 13.8125C15.2657 11.0988 21.8409 13.2358 26.3079 18.6528C30.7566 24.0357 31.4498 30.5976 27.7967 33.3453C24.1773 36.075 17.5684 33.9562 13.0676 28.5572C8.58515 23.1924 7.9594 16.5944 11.5943 13.8125ZM35.7227 0.881111C40.0856 -0.623388 45.1995 3.56923 47.2523 10.2362C49.2221 16.9916 47.3607 23.65 43.0499 25.1705C38.7052 26.7091 33.625 22.4984 31.6397 15.7952C29.6024 9.07602 31.4638 2.41762 35.7227 0.881111ZM1.9446 39.17C4.89639 35.4378 11.7531 35.6686 17.3184 39.4876C22.7699 43.4994 24.9254 49.6286 22.0073 53.3428C19.0893 57.0569 12.2846 56.8422 6.7502 52.9188C1.2158 48.9953 -0.89048 42.7958 1.9446 39.17ZM62.6874 6.61548C67.2764 6.26238 71.2725 11.4491 71.475 18.2301C71.6775 25.011 68.0884 30.7962 63.3799 31.1695C58.6714 31.5428 54.7611 26.354 54.439 19.5932C54.3405 12.8442 57.9451 7.00684 62.6874 6.61548ZM76.7474 46.3853C78.5998 49.5175 78.0702 54.3651 75.8806 57.25C71.3382 63.2828 61.0781 61.3216 54.3627 64.9207C47.6472 68.5198 43.6594 78.4241 36.0941 78.5732C31.8242 78.7114 27.1206 75.5275 25.5861 71.6106C23.4712 66.2056 28.0501 60.241 29.6357 54.6081C31.8177 47.2512 30.3507 36.4087 37.1336 32.7734C43.8828 29.1562 52.2285 36.1367 59.4334 38.6382C65.4082 40.7897 73.5331 40.9552 76.7474 46.3853Z" fill="#57897D"/>
</svg>
