<svg width="85" height="78" viewBox="0 0 85 78" fill="none" xmlns="http://www.w3.org/2000/svg">
<path id="Vector" d="M11.1969 12.99C15.1164 10.4373 22.3616 12.711 27.4118 18.1352C32.441 23.5255 33.4095 29.9646 29.5111 32.5512C25.6489 35.1211 18.3674 32.864 13.2809 27.4566C8.2155 22.0831 7.31954 15.6104 11.1969 12.99ZM37.1136 1.01023C41.8268 -0.340238 47.5436 3.90404 49.9993 10.4839C52.3672 17.1479 50.5507 23.6104 45.8948 24.978C41.2026 26.3623 35.522 22.1013 33.1389 15.4879C30.6984 8.85739 32.515 2.39491 37.1136 1.01023ZM1.48367 37.5301C4.58482 33.9608 12.0758 34.3775 18.2732 38.2689C24.3525 42.3456 26.9029 48.4022 23.838 51.9547C20.7731 55.5072 13.3394 55.1077 7.17243 51.1151C1.00543 47.1225 -1.49354 40.9985 1.48367 37.5301ZM66.7285 7.37128C71.7257 7.15359 76.2545 12.3393 76.6945 18.9792C77.1344 25.6191 73.404 31.1791 68.277 31.4132C63.1501 31.6473 58.7148 26.4619 58.1451 19.8385C57.8197 13.2328 61.5653 7.62213 66.7285 7.37128ZM83.3577 46.6719C85.4806 49.7879 85.0591 54.5158 82.7624 57.2774C77.9996 63.0531 66.7382 60.8487 59.525 64.1829C52.3118 67.5172 48.2792 77.0962 40.027 77.0314C35.3713 77.0477 30.1349 73.8018 28.3337 69.9269C25.851 64.58 30.6559 58.8719 32.2046 53.405C34.3486 46.2681 32.3974 35.6194 39.6831 32.2516C46.9325 28.9007 56.2665 35.9625 64.2108 38.6105C70.8013 40.8818 79.6743 41.2698 83.3577 46.6719Z" fill="white"/>
</svg>
