<svg width="188" height="176" viewBox="0 0 188 176" fill="none" xmlns="http://www.w3.org/2000/svg">
<g id="fa:group" clip-path="url(#clip0_107_621)">
<path id="Vector" d="M58.0646 88C47.4896 88.3274 38.8403 92.5179 32.1167 100.571H18.9958C13.6431 100.571 9.13889 99.2455 5.48333 96.5938C1.82778 93.942 0 90.0625 0 84.9554C0 61.8423 4.04722 50.2857 12.1417 50.2857C12.5333 50.2857 13.9531 50.9732 16.401 52.3482C18.849 53.7232 22.0312 55.1146 25.9479 56.5223C29.8646 57.9301 33.7486 58.6339 37.6 58.6339C41.9736 58.6339 46.3146 57.881 50.6229 56.375C50.2965 58.7976 50.1333 60.9583 50.1333 62.8571C50.1333 71.9583 52.7771 80.3393 58.0646 88ZM162.933 150.562C162.933 158.42 160.551 164.624 155.785 169.174C151.02 173.725 144.688 176 136.79 176H51.2104C43.3118 176 36.9799 173.725 32.2146 169.174C27.4493 164.624 25.0667 158.42 25.0667 150.562C25.0667 147.092 25.1809 143.704 25.4094 140.397C25.6378 137.091 26.0948 133.522 26.7802 129.692C27.4656 125.862 28.3306 122.31 29.375 119.036C30.4194 115.762 31.8229 112.57 33.5854 109.46C35.3479 106.35 37.3715 103.698 39.6562 101.504C41.941 99.311 44.7316 97.5595 48.0281 96.25C51.3247 94.9405 54.9639 94.2857 58.9458 94.2857C59.5986 94.2857 61.0021 94.9896 63.1563 96.3973C65.3104 97.8051 67.6931 99.3765 70.3042 101.112C72.9153 102.847 76.4076 104.418 80.7812 105.826C85.1549 107.234 89.5611 107.938 94 107.938C98.4389 107.938 102.845 107.234 107.219 105.826C111.592 104.418 115.085 102.847 117.696 101.112C120.307 99.3765 122.69 97.8051 124.844 96.3973C126.998 94.9896 128.401 94.2857 129.054 94.2857C133.036 94.2857 136.675 94.9405 139.972 96.25C143.268 97.5595 146.059 99.311 148.344 101.504C150.628 103.698 152.652 106.35 154.415 109.46C156.177 112.57 157.581 115.762 158.625 119.036C159.669 122.31 160.534 125.862 161.22 129.692C161.905 133.522 162.362 137.091 162.591 140.397C162.819 143.704 162.933 147.092 162.933 150.562ZM62.6667 25.1429C62.6667 32.0833 60.2188 38.0089 55.3229 42.9196C50.4271 47.8304 44.5194 50.2857 37.6 50.2857C30.6806 50.2857 24.7729 47.8304 19.8771 42.9196C14.9813 38.0089 12.5333 32.0833 12.5333 25.1429C12.5333 18.2024 14.9813 12.2768 19.8771 7.36607C24.7729 2.45536 30.6806 0 37.6 0C44.5194 0 50.4271 2.45536 55.3229 7.36607C60.2188 12.2768 62.6667 18.2024 62.6667 25.1429ZM131.6 62.8571C131.6 73.2679 127.928 82.1562 120.584 89.5223C113.241 96.8884 104.379 100.571 94 100.571C83.6208 100.571 74.7594 96.8884 67.4156 89.5223C60.0719 82.1562 56.4 73.2679 56.4 62.8571C56.4 52.4464 60.0719 43.558 67.4156 36.192C74.7594 28.8259 83.6208 25.1429 94 25.1429C104.379 25.1429 113.241 28.8259 120.584 36.192C127.928 43.558 131.6 52.4464 131.6 62.8571ZM188 84.9554C188 90.0625 186.172 93.942 182.517 96.5938C178.861 99.2455 174.357 100.571 169.004 100.571H155.883C149.16 92.5179 140.51 88.3274 129.935 88C135.223 80.3393 137.867 71.9583 137.867 62.8571C137.867 60.9583 137.703 58.7976 137.377 56.375C141.685 57.881 146.026 58.6339 150.4 58.6339C154.251 58.6339 158.135 57.9301 162.052 56.5223C165.969 55.1146 169.151 53.7232 171.599 52.3482C174.047 50.9732 175.467 50.2857 175.858 50.2857C183.953 50.2857 188 61.8423 188 84.9554ZM175.467 25.1429C175.467 32.0833 173.019 38.0089 168.123 42.9196C163.227 47.8304 157.319 50.2857 150.4 50.2857C143.481 50.2857 137.573 47.8304 132.677 42.9196C127.781 38.0089 125.333 32.0833 125.333 25.1429C125.333 18.2024 127.781 12.2768 132.677 7.36607C137.573 2.45536 143.481 0 150.4 0C157.319 0 163.227 2.45536 168.123 7.36607C173.019 12.2768 175.467 18.2024 175.467 25.1429Z" fill="#57897D"/>
</g>
<defs>
<clipPath id="clip0_107_621">
<rect width="188" height="176" fill="white"/>
</clipPath>
</defs>
</svg>
